/* XPM */
static char * layers_eye_xpm[] = {
"16 16 58 1",
" 	c None",
".	c #D3D3D0",
"+	c #C1C2BF",
"@	c #9FA09B",
"#	c #888A85",
"$	c #A3A5A0",
"%	c #B7B8B4",
"&	c #DCDDD9",
"*	c #C9CAC5",
"=	c #CCCCCB",
"-	c #7288A6",
";	c #345686",
">	c #76889F",
",	c #ABABA8",
"'	c #ACAEA9",
")	c #CECECB",
"!	c #A7A7A7",
"~	c #DBDBDB",
"{	c #6D88AF",
"]	c #FFFFFF",
"^	c #193B6C",
"/	c #2C5691",
"(	c #E0E1E0",
"_	c #A5A6A2",
":	c #A4A4A4",
"<	c #E2E2E2",
"[	c #F6F6F6",
"}	c #204A87",
"|	c #000000",
"1	c #4874AA",
"2	c #EAEAEA",
"3	c #DEDEDD",
"4	c #B0B1AD",
"5	c #A6A7A3",
"6	c #EFEFEF",
"7	c #F2F2F2",
"8	c #F5F5F5",
"9	c #406BA3",
"0	c #E9E9E9",
"a	c #F0F0F0",
"b	c #A7A8A4",
"c	c #FBFBFB",
"d	c #F8F8F8",
"e	c #718BB1",
"f	c #345E98",
"g	c #39649D",
"h	c #D8D8D7",
"i	c #9D9F9A",
"j	c #D7D7D5",
"k	c #D3DCE7",
"l	c #859EC0",
"m	c #7F9ABD",
"n	c #718FB6",
"o	c #98ADC9",
"p	c #E7E7E7",
"q	c #B4B5B1",
"r	c #9C9D99",
"s	c #A8A8A4",
"                ",
"                ",
"                ",
"                ",
"   .+@###$%&    ",
"  *##=-;;>,#'   ",
" )#!~{]]^/{(#_  ",
"%#:<[}]]|1}23#4 ",
"5#678}^||9}0a2# ",
" b#cdef19g{ch## ",
"  i#jklmnop+#q  ",
"    r######s    ",
"                ",
"                ",
"                ",
"                "};
