/* XPM */
static char * layers_up_xpm[] = {
"16 16 79 1",
" 	c None",
".	c #CB9F72",
"+	c #C4986B",
"@	c #E0904A",
"#	c #E08C45",
"$	c #C49869",
"%	c #C49668",
"&	c #E3924B",
"*	c #F7BC8C",
"=	c #F7B883",
"-	c #E28C3E",
";	c #C29664",
">	c #C39567",
",	c #E3924A",
"'	c #F7BC8A",
")	c #F9B983",
"!	c #F9B47A",
"~	c #F5AE70",
"{	c #E18A36",
"]	c #C2945F",
"^	c #C29566",
"/	c #E38F44",
"(	c #F7B782",
"_	c #F9B77E",
":	c #F9B378",
"<	c #F8B070",
"[	c #F8AC67",
"}	c #F5A65D",
"|	c #E1872E",
"1	c #C2935B",
"2	c #C19566",
"3	c #E28B3D",
"4	c #F6B176",
"5	c #F9B175",
"6	c #F8B072",
"7	c #F8AE6C",
"8	c #F8AC65",
"9	c #F7A75D",
"0	c #F7A454",
"a	c #F49E4A",
"b	c #E08525",
"c	c #BE9158",
"d	c #AB5800",
"e	c #CB6300",
"f	c #D86700",
"g	c #EA6F00",
"h	c #F8AA64",
"i	c #F7A456",
"j	c #F69A41",
"k	c #F5902E",
"l	c #EA7600",
"m	c #D87200",
"n	c #CB6E00",
"o	c #AC6400",
"p	c #D86C00",
"q	c #F58620",
"r	c #F37D0A",
"s	c #F37900",
"t	c #F37B00",
"u	c #D87300",
"v	c #CF6A00",
"w	c #F37700",
"x	c #F37C00",
"y	c #CF7200",
"z	c #CF6B00",
"A	c #F37E00",
"B	c #F37F00",
"C	c #CF7400",
"D	c #CF6D00",
"E	c #F38100",
"F	c #CF7700",
"G	c #CF6E00",
"H	c #F38200",
"I	c #CF7800",
"J	c #B46600",
"K	c #CF7100",
"L	c #CF7300",
"M	c #CF7600",
"N	c #B47000",
"                ",
"       ..       ",
"      +@#$      ",
"     %&*=-;     ",
"    >,')!~{]    ",
"   ^/(_:<[}|1   ",
"  234567890abc  ",
"  defghijklmno  ",
"     pqrstu     ",
"     vwstxy     ",
"     zstABC     ",
"     DtxBEF     ",
"     GxAEHI     ",
"     JKLMIN     ",
"                ",
"                "};
