/* XPM */
static char *seekforward_xpm[] = {
/* columns rows colors chars-per-pixel */
"16 16 43 1",
"  c #838482",
". c #8C8D8B",
"X c #8F908D",
"o c #959694",
"O c #A4A4A3",
"+ c #A4A5A3",
"@ c #B4B5B3",
"# c #B6B7B5",
"$ c #B7B7B6",
"% c #BEBFBC",
"& c #C4C5C3",
"* c #C7C8C5",
"= c #C7C8C6",
"- c #C8C8C6",
"; c #C9CAC8",
": c #CBCCCA",
"> c #CCCDCB",
", c #D0D1CF",
"< c #D1D2D0",
"1 c #D2D3D0",
"2 c #D2D3D1",
"3 c #D4D5D3",
"4 c #D4D6D3",
"5 c #D7D8D6",
"6 c #D9D9D8",
"7 c #D9DAD8",
"8 c #E3E4E2",
"9 c #E4E4E2",
"0 c #E7E8E5",
"q c #EBECE9",
"w c #EBEDEA",
"e c #ECEDEB",
"r c #EFF1ED",
"t c #F0F1EE",
"y c #F0F2EF",
"u c #F1F2EF",
"i c #F3F4F2",
"p c #F4F5F3",
"a c #F5F6F4",
"s c #F7F8F6",
"d c #F8F8F7",
"f c #F8F9F8",
"g c None",
/* pixels */
"gggggggggggggggg",
"gggggggggggggggg",
"gggggggggggggggg",
"gggggggggggggggg",
"gggggggggggggggg",
"gg@#gggg@$gggggg",
"gg=u5+gg-y5Ogggg",
"gg:aae; &tr0*.gg",
"gg2dpw<X>siq,ogg",
"gg6f8%gg7f9%gggg",
"gg13gggg14gggggg",
"gggggggggggggggg",
"gggggggggggggggg",
"gggggggggggggggg",
"gggggggggggggggg",
"gggggggggggggggg"
};
