/* XPM */
static char *cancel_xpm[] = {
/* columns rows colors chars-per-pixel */
"16 16 161 2",
"   c #B00202",
".  c #B60101",
"X  c #B30B0B",
"o  c #B60808",
"O  c #A91E1E",
"+  c #B91111",
"@  c #B81515",
"#  c #B71818",
"$  c #B31D1D",
"%  c #B51F1F",
"&  c #8E2222",
"*  c #962525",
"=  c #952D2D",
"-  c #A92323",
";  c #A82424",
":  c #A92B2B",
">  c #AA2E2E",
",  c #B22323",
"<  c #B52222",
"1  c #B02525",
"2  c #B92020",
"3  c #B02D2D",
"4  c #B72C2C",
"5  c #BD2929",
"6  c #BD2E2E",
"7  c #A83535",
"8  c #B63333",
"9  c #BC3535",
"0  c #B13939",
"q  c #B83838",
"w  c #CC0000",
"e  c #C10B0B",
"r  c #C50A0A",
"t  c #D50000",
"y  c #D70000",
"u  c #DB0101",
"i  c #DF0000",
"p  c #DC0606",
"a  c #D40B0B",
"s  c #C51313",
"d  c #C71313",
"f  c #C51F1F",
"g  c #CB1E1E",
"h  c #CC1C1C",
"j  c #D71313",
"k  c #E00000",
"l  c #E50000",
"z  c #E70000",
"x  c #E30505",
"c  c #EA0000",
"v  c #EB0000",
"b  c #EC0000",
"n  c #E70E0E",
"m  c #EB0A0A",
"M  c #F10000",
"N  c #F80000",
"B  c #FA0505",
"V  c #E31616",
"C  c #F11010",
"Z  c #F01818",
"A  c #F51E1E",
"S  c #FB1A1A",
"D  c #C22323",
"F  c #C12525",
"G  c #C92424",
"H  c #CA2727",
"J  c #C22828",
"K  c #C92A2A",
"L  c #C82C2C",
"P  c #DF2020",
"I  c #DF2121",
"U  c #DE2222",
"Y  c #C63030",
"T  c #C03434",
"R  c #CD3B3B",
"E  c #CC3D3D",
"W  c #E72929",
"Q  c #E42E2E",
"!  c #E62F2F",
"~  c #E72F2F",
"^  c #E92929",
"/  c #E82A2A",
"(  c #FA2525",
")  c #F12E2E",
"_  c #E73737",
"`  c #EA3636",
"'  c #EC3B3B",
"]  c #EF3A3A",
"[  c #EA3C3C",
"{  c #EC3D3D",
"}  c #EE3C3C",
"|  c #EE3D3D",
" . c #F33636",
".. c #FF3030",
"X. c #C24343",
"o. c #CA4343",
"O. c #CB4343",
"+. c #C94545",
"@. c #EA4242",
"#. c #F44242",
"$. c #F44646",
"%. c #F14C4C",
"&. c #F44D4D",
"*. c #F64C4C",
"=. c #F44E4E",
"-. c #F74F4F",
";. c #FA4B4B",
":. c #EB5A5A",
">. c #ED5B5B",
",. c #F55757",
"<. c #F75D5D",
"1. c #FC5C5C",
"2. c #F56161",
"3. c #F46262",
"4. c #F96060",
"5. c #FD6767",
"6. c #FB6969",
"7. c #FB6A6A",
"8. c #FF6868",
"9. c #FF6E6E",
"0. c #F77171",
"q. c #F87474",
"w. c #FF7777",
"e. c #F28484",
"r. c #FD8181",
"t. c #FF8585",
"y. c #FD8787",
"u. c #FE8787",
"i. c #F38B8B",
"p. c #FF8E8E",
"a. c #FF8F8F",
"s. c #FF9393",
"d. c #FD9595",
"f. c #FE9494",
"g. c #FD9696",
"h. c #FE9696",
"j. c #FF9F9F",
"k. c #FFA0A0",
"l. c #FDABAB",
"z. c #FFAAAA",
"x. c #FFACAC",
"c. c #FDB0B0",
"v. c #FFB3B3",
"b. c #FFB4B4",
"n. c #FFBBBB",
"m. c #FFBFBF",
"M. c #FFC1C1",
"N. c #FFC4C4",
"B. c #FFC6C6",
"V. c #FFC8C8",
"C. c #FFC9C9",
"Z. c #FFD2D2",
"A. c #FFD3D3",
"S. c #FFD4D4",
"D. c #FFD6D6",
"F. c #FFD9D9",
"G. c #FFDEDE",
"H. c #FFDFDF",
"J. c #FFEBEB",
"K. c #FFEDED",
"L. c None",
/* pixels */
"L.L.* ; L.L.L.L.L.L.L.L.1 - L.L.",
"L.& :.8.$ L.L.L.L.L.L.% y.e.O L.",
"= >.C.K.6.+ L.L.L.L.@ q.J.G.i.3 ",
"7 9.S.H.A.<.o L.L.X 3.Z.F.D.z.X.",
"L.8 5.n.V.N.&..   %.M.B.m.f.o.L.",
"L.L.5 1.z.b.c.{ ` l.v.x.r.R L.L.",
"L.L.L.2 ;.s.k.g.d.j.h.7.L L.L.L.",
"L.L.L.L.# #.t.a.p.u.,.f L.L.L.L.",
"L.L.L.L.< n / @.@._ W D L.L.L.L.",
"L.L.L.4 Z k t w w a P | Y L.L.L.",
"L.L.9 A c i y u p j U ~ =.E L.L.",
"L.q ( M l i x r e V I Q } 4.O.L.",
"0 ..N v z m d L.L.s ^ ! [ $.w.+.",
">  .B b C h L.L.L.L.g ] ' *.0.T ",
"L.: ) S G L.L.L.L.L.L.H -.2.6 L.",
"L.L., J L.L.L.L.L.L.L.L.K F L.L."
};
