/* XPM */
static char *record_xpm[] = {
/* columns rows colors chars-per-pixel */
"16 16 53 1",
"  c #E31E1E",
". c #E51D1D",
"X c #DA3636",
"o c #DC3535",
"O c #DB3A3A",
"+ c #DB3B3B",
"@ c #E52121",
"# c #E72222",
"$ c #E72323",
"% c #E82020",
"& c #E92121",
"* c #E92222",
"= c #EA2323",
"- c #E82424",
"; c #EA2626",
": c #EC2525",
"> c #EC2626",
", c #E62929",
"< c #E42F2F",
"1 c #E43030",
"2 c #E53333",
"3 c #E33737",
"4 c #E73535",
"5 c #E93636",
"6 c #E93737",
"7 c #E33838",
"8 c #E53A3A",
"9 c #CA4040",
"0 c #CD4040",
"q c #CD4444",
"w c #D14343",
"e c #E24747",
"r c #EA4343",
"t c #E94949",
"y c #EA4949",
"u c #E84C4C",
"i c #E75050",
"p c #E95555",
"a c #E45C5C",
"s c #EB5D5D",
"d c #EB5F5F",
"f c #E46565",
"g c #EB6161",
"h c #E96666",
"j c #EB6767",
"k c #E56B6B",
"l c #EB6969",
"z c #EB6C6C",
"x c #EA6E6E",
"c c #EC6F6F",
"v c #EA7373",
"b c #EB7676",
"n c None",
/* pixels */
"nnnnnnnnnnnnnnnn",
"nnnnnnnnnnnnnnnn",
"nnnnnnnnnnnnnnnn",
"nnnnnnnnnnnnnnnn",
"nnnnnqkbvf9nnnnn",
"nnnnwxczljh0nnnn",
"nnnnagddspuennnn",
"nnnnityr6, <nnnn",
"nnnn2@-=*%.1nnnn",
"nnnn3#&>>*$7nnnn",
"nnnno4;::;4+nnnn",
"nnnnnX8558Onnnnn",
"nnnnnnnnnnnnnnnn",
"nnnnnnnnnnnnnnnn",
"nnnnnnnnnnnnnnnn",
"nnnnnnnnnnnnnnnn"
};
