/* XPM */
static char *floodfill_xpm[] = {
/* columns rows colors chars-per-pixel */
"16 16 117 2",
"   c #405669",
".  c #506275",
"X  c #526778",
"o  c #55677D",
"O  c #65626E",
"+  c #7F746B",
"@  c #646F7F",
"#  c #666F7F",
"$  c #84737C",
"%  c #01609F",
"&  c #0C629F",
"*  c #0C639F",
"=  c #0F659F",
"-  c #1065A2",
";  c #106BAB",
":  c #0260BD",
">  c #1A76B3",
",  c #1974B6",
"<  c #1877BA",
"1  c #207EBF",
"2  c #6C7583",
"3  c #6A7485",
"4  c #6F7B8B",
"5  c #737D8D",
"6  c #7F7E89",
"7  c #627894",
"8  c #1379C1",
"9  c #1E7DCF",
"0  c #1A7BD7",
"q  c #1574DA",
"w  c #1C7FDD",
"e  c #1D77E7",
"r  c #897D8A",
"t  c #768090",
"y  c #708497",
"u  c #7A8697",
"i  c #758C9D",
"p  c #788C9D",
"a  c #6088A1",
"s  c #629DBA",
"d  c #1A84C8",
"f  c #1692E6",
"g  c #2CA7F0",
"h  c #7BACDC",
"j  c #6CB0FF",
"k  c #828C9B",
"l  c #858C9B",
"z  c #828B9D",
"x  c #90929E",
"c  c #8496A5",
"v  c #8991A0",
"b  c #8D92A3",
"n  c #8C96A5",
"m  c #8B99A7",
"M  c #8297A8",
"N  c #9892A0",
"B  c #989EA4",
"V  c #919AA9",
"C  c #979FAC",
"Z  c #969FAE",
"A  c #829DB6",
"S  c #93A2B4",
"D  c #9FA7B6",
"F  c #9BA8B4",
"G  c #9FAAB9",
"H  c #9FB0BB",
"J  c #A7A4A9",
"K  c #BCA4A3",
"L  c #A0A7B1",
"P  c #A1A8B3",
"I  c #A1ADB6",
"U  c #A0ACBB",
"Y  c #A4ADBB",
"T  c #A4AFBE",
"R  c #A6B1BD",
"E  c #A9B2BF",
"W  c #CC9B97",
"Q  c #B3C0BD",
"!  c #E5D0B8",
"~  c #9FAEC0",
"^  c #ABB3C0",
"/  c #AAB4C1",
"(  c #ACB6C0",
")  c #ADB2C4",
"_  c #AEB7C5",
"`  c #ACB9CE",
"'  c #B2B4C4",
"]  c #B1B8C4",
"[  c #B2B9C7",
"{  c #B7BFC7",
"}  c #BDC5CF",
"|  c #BEC7D1",
" . c #C0C3CC",
".. c #C3C5CC",
"X. c #C0C3D4",
"o. c #C3C8D2",
"O. c #CBCED9",
"+. c #C8CEDC",
"@. c #CCD3DF",
"#. c #E5F4D7",
"$. c #CCD2E2",
"%. c #CFD5E2",
"&. c #CEDBE3",
"*. c #CFD9E6",
"=. c #D1D7E5",
"-. c #D1D9E6",
";. c #DAE2EF",
":. c #CFE4F7",
">. c #E7E4E6",
",. c #E6E4ED",
"<. c #E0E6F4",
"1. c #E0E7F4",
"2. c #E1E7F4",
"3. c #EEE9F2",
"4. c #E9EAF6",
"5. c #EBF1F5",
"6. c None",
/* pixels */
"6.6.6.6.6.6.6.6.6.6.6.g 6.6.6.6.",
"6.6.6.6.6.6.6.6.B 6.6.e 6.6.6.6.",
"6.6.6.6.6.6.6.H >.! 6.q 6.6.6.6.",
"6.6.6.6.6.6.c { ' 3.#.< 6.6.6.6.",
"6.6.6.6.6.p C o.&.<.:.: 6.6.6.6.",
"6.6.6.6.i R U ^ 5.-.` s K j 6.6.",
"6.6.6.y F ] *.=.Y O.Q J W h w 6.",
"6.6.m P E @.1.$.T v  .N + a 0 6.",
"6.M ..| %.;.+.[ G n u ( $ O 9 % ",
"6.  _ 4.2.+./ D Z l 4 3 r 6.d & ",
"6.6.6.~ ,.} ) V k t @ . 6.6.1 * ",
"6.6.6.6.S X.I x 5 @ o 6.6.6.> = ",
"6.6.6.6.6.A L z # X 6.6.6.6., - ",
"6.6.6.6.6.6.b 6 2 6.6.6.6.6.f ; ",
"6.6.6.6.6.6.6.7 6.6.6.6.6.6.6.8 ",
"6.6.6.6.6.6.6.6.6.6.6.6.6.6.6.6."
};
