/* XPM */
static char *magnifying_glass[] = {
/* columns rows colors chars-per-pixel */
"16 16 91 1",
"  c #717171",
". c gray46",
"X c gray48",
"o c #7C7C7C",
"O c #7F7F7F",
"+ c #6392C6",
"@ c #6F95C2",
"# c #6B95C4",
"$ c #6A95C5",
"% c #759AC5",
"& c #7E9FC6",
"* c #739ECD",
"= c #7FA0C6",
"- c #7FA4CE",
"; c #79A4D2",
": c #888888",
"> c #939393",
", c #979797",
"< c #9A9A9A",
"1 c #9D9D9D",
"2 c #A0A0A0",
"3 c #A2A2A2",
"4 c #A4A4A4",
"5 c #ABAAA9",
"6 c #AFAFAE",
"7 c #B1B1B1",
"8 c #B4B4B4",
"9 c #BDBCBC",
"0 c #C0BFBF",
"q c #81A1C6",
"w c #80A1C7",
"e c #82A2C8",
"r c #86A6CA",
"t c #8AA9CD",
"y c #91ABCA",
"u c #95AECC",
"i c #94AFCE",
"p c #99B0CC",
"a c #9EB4CF",
"s c #92AFD1",
"d c #8DB1D9",
"f c #91B4DA",
"g c #9FBAD8",
"h c #A7B9CF",
"j c #A7BAD0",
"k c #A3BCD9",
"l c #BDC1C7",
"z c #B6C1CF",
"x c #B8C2CF",
"c c #BBC4CF",
"v c #B3C0D0",
"b c #B6C2D0",
"n c #BAC4D0",
"m c #BECAD8",
"M c #B1CAE5",
"N c #BBD0E8",
"B c #BFD3E9",
"V c gray76",
"C c #C1C3C5",
"Z c #C3C4C4",
"A c #C4C5C5",
"S c #C5C5C5",
"D c #C7C6C6",
"F c #C0C4C8",
"G c #C5C8CC",
"H c #C4C8CD",
"J c #CACACA",
"K c #CACBCC",
"L c #CACCCE",
"P c #C3C8D0",
"I c #C6CBD1",
"U c #C1CAD6",
"Y c #C6CDD4",
"T c #CCCFD3",
"R c #C9CFD6",
"E c #CCD0D4",
"W c gray83",
"Q c #C2D6EA",
"! c #C6D8EC",
"~ c #CBDBED",
"^ c #CDDDEE",
"/ c #D0DFEF",
"( c #D7E4F2",
") c #D9E5F2",
"_ c #DBE7F3",
"` c #DCE7F3",
"' c #DDE8F4",
"] c #E2ECF5",
"[ c #E3ECF5",
"{ c #E8EFF8",
"} c None",
/* pixels */
"}}}}}}}}}}}}}}}}",
"}}}0HxzPS}}}}}}}",
"}}ZvikgthL}}}}}}",
"}}bs){'!-jD}}}}}",
"}CyB][`^d%I}}}}}",
"}lr!(_)N;$n}}}}}",
"}FeM~/Q}}#c}}}}}",
"}Ap*f}}}}qG}}}}}",
"}}Y=+}}}@m6}}}}}",
"}}9Raw&uUW1 }}}}",
"}}}}JTEK5<3>.}}}",
"}}}}}}}}}}:3,X}}",
"}}}}}}}}}}}O274}",
"}}}}}}}}}}}}oV8}",
"}}}}}}}}}}}}}}}}",
"}}}}}}}}}}}}}}}}"
};
