/* XPM */
static char *pause_xpm[] = {
/* columns rows colors chars-per-pixel */
"16 16 41 1",
"  c #9FA09E",
". c #A0A19E",
"X c #A7A8A5",
"o c #A8A9A6",
"O c #A8A9A7",
"+ c #A9AAA7",
"@ c #AAACA9",
"# c #ACADAA",
"$ c #B3B4B1",
"% c #B3B5B2",
"& c #BCBEBA",
"* c #BEBFBC",
"= c #C3C5C1",
"- c #C5C7C4",
"; c #C6C8C4",
": c #C7C9C5",
"> c #CBCCC8",
", c #CCCDC9",
"< c #D6D7D4",
"1 c #D6D8D5",
"2 c #D7D8D5",
"3 c #D7D9D5",
"4 c #D7D9D6",
"5 c #D8D9D6",
"6 c #D8DAD6",
"7 c #D9DBD7",
"8 c #DCDEDB",
"9 c #DFE0DD",
"0 c #DFE2DD",
"q c #DFE1DE",
"w c #E1E3DE",
"e c #E2E3E1",
"r c #E2E4E0",
"t c #E3E4E1",
"y c #E4E6E2",
"u c #E5E7E4",
"i c #E6E7E4",
"p c #E7E8E6",
"a c #E8E9E6",
"s c #E9EBE8",
"d c None",
/* pixels */
"dddddddddddddddd",
"dddddddddddddddd",
"dddddddddddddddd",
"dddddddddddddddd",
"dddddo.dd Oddddd",
"ddddXr4dd<t+dddd",
"dddd+r3dd1r@dddd",
"dddd#u7dd2w#dddd",
"dddd%y6dd50$dddd",
"dddd*a8ddqi&dddd",
"dddd-s9ddep=dddd",
"ddddd,;dd:>ddddd",
"dddddddddddddddd",
"dddddddddddddddd",
"dddddddddddddddd",
"dddddddddddddddd"
};
