/* XPM */
static char *eject_xpm[] = {
/* columns rows colors chars-per-pixel */
"16 16 41 1",
"  c #848583",
". c #888987",
"X c #929391",
"o c #A4A5A3",
"O c #A7A8A6",
"+ c #ACADAB",
"@ c #AFB1AE",
"# c #B5B6B4",
"$ c #B7B8B6",
"% c #B9BAB8",
"& c #BABBB9",
"* c #CACBC9",
"= c #CCCDCB",
"- c #CFCFCD",
"; c #D1D3D0",
": c #D4D5D3",
"> c #D5D6D4",
", c #D6D6D5",
"< c #D6D7D5",
"1 c #D6D7D6",
"2 c #D7D7D6",
"3 c #D8D9D7",
"4 c #D9DAD8",
"5 c #DADBD9",
"6 c #DBDBDA",
"7 c #DBDCDA",
"8 c #DCDDDB",
"9 c #DEDFDD",
"0 c #DFE0DE",
"q c #DFE0DF",
"w c #E5E7E4",
"e c #E8E9E7",
"r c #EDEEEB",
"t c #EEEFEC",
"y c #EFF0ED",
"u c #F1F2EF",
"i c #F2F4F1",
"p c #F3F4F1",
"a c #F3F4F2",
"s c #F4F5F2",
"d c None",
/* pixels */
"dddddddddddddddd",
"dddddddddddddddd",
"dddddddddddddddd",
"dddddddX.ddddddd",
"dddddd 8-ddddddd",
"dddddd*uy%dddddd",
"ddddd#rytwoddddd",
"ddddOeisap0ddddd",
"dddd&<,21>:+dddd",
"dddddddddddddddd",
"ddd@:357643=dddd",
"ddd$489q098;dddd",
"dddddddddddddddd",
"dddddddddddddddd",
"dddddddddddddddd",
"dddddddddddddddd"
};
