/* XPM */
static char *eraser_xpm[] = {
/* columns rows colors chars-per-pixel */
"16 16 59 1",
"  c #54473F",
". c #4D4E4E",
"X c #5A5855",
"o c #63564B",
"O c #64564B",
"+ c #675B50",
"@ c #635C52",
"# c #645D53",
"$ c #645D54",
"% c #64625F",
"& c #6D635A",
"* c #6A6459",
"= c #72695E",
"- c #676564",
"; c #686561",
": c #6A6865",
"> c #766C61",
", c #766D63",
"< c #766F63",
"1 c #787165",
"2 c #7B7364",
"3 c #7B7267",
"4 c #7C7267",
"5 c #81786C",
"6 c #867E70",
"7 c #898072",
"8 c #8B8477",
"9 c #94897A",
"0 c #958A7A",
"q c #978C7E",
"w c #999081",
"e c #9D9384",
"r c #A09384",
"t c #A09684",
"y c #A09687",
"u c #A49B8B",
"i c #A49B8C",
"p c #A69E8D",
"a c #A89E8F",
"s c #A89E90",
"d c #A89F90",
"f c #A89F91",
"g c #AA9F90",
"h c #A7A090",
"j c #A9A190",
"k c #AAA091",
"l c #A9A092",
"z c #ABA292",
"x c #AEA495",
"c c #F0A6C3",
"v c #F0AEC3",
"b c #F0B7C3",
"n c #FDBACF",
"m c #FDC6CC",
"M c #FDC9E1",
"N c #FDD2E1",
"B c #FDC3F6",
"V c #FDEAFF",
"C c None",
/* pixels */
"CCCCCCCCCCCCCCCC",
"CCCCCCCCCCCCCCCC",
"CCCCCCCC32oO+7 C",
"CCCCCCC5cMNNVNwC",
"CCCCCC4cMNNNN6eC",
"CCCCC=vMNNMm*cyC",
"CCCC>bMNMMm$cneC",
"CCC>bMNNMm@cn8.C",
"CC&bNnmMm#cn,XCC",
"Cqufh09xrcn<%CCC",
"CjNMBmMNkn1:CCCC",
"CaNMBmMNi=-CCCCC",
"Cspldgzjt;CCCCCC",
"CCCCCCCCCCCCCCCC",
"CCCCCCCCCCCCCCCC",
"CCCCCCCCCCCCCCCC"
};
