/* XPM */
static char * layers_down_xpm[] = {
"16 16 82 1",
" 	c None",
".	c #B45900",
"+	c #CF6100",
"@	c #CF6200",
"#	c #CF6300",
"$	c #CF6400",
"%	c #B45C00",
"&	c #FAC59A",
"*	c #FAC496",
"=	c #FAC08F",
"-	c #F9BB86",
";	c #CF6600",
">	c #FAC191",
",	c #FABF8C",
"'	c #F9BC86",
")	c #F9B87E",
"!	c #CF6800",
"~	c #CF6500",
"{	c #F9BC85",
"]	c #F9BA82",
"^	c #F9B87C",
"/	c #F9B575",
"(	c #CF6B00",
"_	c #F9B579",
":	c #F9B576",
"<	c #F8B472",
"[	c #F8B16B",
"}	c #CF6D00",
"|	c #D86C00",
"1	c #F8B16D",
"2	c #F8B06A",
"3	c #F7AA5D",
"4	c #F69F46",
"5	c #D87300",
"6	c #AB5B00",
"7	c #CB6600",
"8	c #EA7300",
"9	c #F69639",
"0	c #F58B20",
"a	c #F4820B",
"b	c #F37D00",
"c	c #EA7B00",
"d	c #D87600",
"e	c #CC7200",
"f	c #AE6900",
"g	c #AC814E",
"h	c #DE7F22",
"i	c #F18A27",
"j	c #F47D0B",
"k	c #F37A00",
"l	c #F37E00",
"m	c #F37F00",
"n	c #F38100",
"o	c #F08100",
"p	c #DE7B00",
"q	c #AE823A",
"r	c #9E713A",
"s	c #DB7000",
"t	c #EF7800",
"u	c #F37C00",
"v	c #F38000",
"w	c #F38200",
"x	c #F08200",
"y	c #DF7D00",
"z	c #A5762A",
"A	c #A17236",
"B	c #DC7400",
"C	c #F07D00",
"D	c #F08300",
"E	c #DF7E00",
"F	c #A77626",
"G	c #A27231",
"H	c #DD7700",
"I	c #F08000",
"J	c #E07E00",
"K	c #A97625",
"L	c #A5742D",
"M	c #DB7A00",
"N	c #DC7C00",
"O	c #A97725",
"P	c #A0742A",
"Q	c #A07328",
"                ",
"     .+@#$%     ",
"     @&*=-;     ",
"     $>,')!     ",
"     ~{]^/(     ",
"     !_:<[}     ",
"     |12345     ",
"  67|890abcdef  ",
"  ghijkblmnopq  ",
"   rstumvwxyz   ",
"    ABCvwDEF    ",
"     GHIDJK     ",
"      LMNO      ",
"       PQ       ",
"                ",
"                "};
