/* XPM */
static char *process_stop_xpm[] = {
/* columns rows colors chars-per-pixel */
"16 16 159 2",
"   c #9D1212",
".  c #9F1212",
"X  c #9C1414",
"o  c #9D1515",
"O  c #B70000",
"+  c #B80000",
"@  c #BA0000",
"#  c #B90202",
"$  c #B90303",
"%  c #BC0000",
"&  c #BE0000",
"*  c #B90404",
"=  c #BD0707",
"-  c #BF0707",
";  c #BC0808",
":  c #BC0909",
">  c #BC0D0D",
",  c #BE0D0D",
"<  c #A01616",
"1  c #A11818",
"2  c #B61111",
"3  c #BA1111",
"4  c #BB1111",
"5  c #BE1010",
"6  c #B81C1C",
"7  c #B43737",
"8  c #C00000",
"9  c #C20000",
"0  c #C20303",
"q  c #C10808",
"w  c #C30808",
"e  c #C00B0B",
"r  c #C70A0A",
"t  c #C00D0D",
"y  c #C60D0D",
"u  c #C70E0E",
"i  c #C60F0F",
"p  c #CA0808",
"a  c #C90A0A",
"s  c #C31111",
"d  c #C61717",
"f  c #CE1111",
"g  c #C21919",
"h  c #C11F1F",
"j  c #C62C2C",
"k  c #D52C2C",
"l  c #CB3131",
"z  c #CE3535",
"x  c #CE3636",
"c  c #CB3838",
"v  c #CB3F3F",
"b  c #CE3C3C",
"n  c #D63030",
"m  c #D33535",
"M  c #D63434",
"N  c #D73434",
"B  c #D63535",
"V  c #D43737",
"C  c #D73737",
"Z  c #D83737",
"A  c #DB3737",
"S  c #D23939",
"D  c #D73939",
"F  c #D53B3B",
"G  c #D83838",
"H  c #D83A3A",
"J  c #DA3B3B",
"K  c #DC3B3B",
"L  c #D83C3C",
"P  c #D83D3D",
"I  c #DB3C3C",
"U  c #DA3D3D",
"Y  c #DB3D3D",
"T  c #D93E3E",
"R  c #D83F3F",
"E  c #D93F3F",
"W  c #DA3F3F",
"Q  c #DB3F3F",
"!  c #DE3F3F",
"~  c #E43E3E",
"^  c #CA4343",
"/  c #CF4343",
"(  c #CC4949",
")  c #CF4B4B",
"_  c #CF4D4D",
"`  c #CC4F4F",
"'  c #CF4F4F",
"]  c #D24646",
"[  c #D64545",
"{  c #D64747",
"}  c #DA4040",
"|  c #DA4141",
" . c #D94242",
".. c #D94343",
"X. c #DA4242",
"o. c #DC4343",
"O. c #DE4242",
"+. c #DA4444",
"@. c #DB4444",
"#. c #DA4545",
"$. c #DB4545",
"%. c #DA4646",
"&. c #DB4646",
"*. c #D44949",
"=. c #D74A4A",
"-. c #D04F4F",
";. c #D74C4C",
":. c #DB4949",
">. c #DC4949",
",. c #DC4A4A",
"<. c #D84D4D",
"1. c #D35151",
"2. c #D55454",
"3. c #D55555",
"4. c #DC5D5D",
"5. c #E54444",
"6. c #E55050",
"7. c #E75656",
"8. c #E15A5A",
"9. c #E65A5A",
"0. c #E65D5D",
"q. c #E46565",
"w. c #E46666",
"e. c #E96565",
"r. c #E56A6A",
"t. c #E67070",
"y. c #E77171",
"u. c #E67373",
"i. c #E97575",
"p. c #EA7676",
"a. c #E57979",
"s. c #E17E7E",
"d. c #E78080",
"f. c #E58383",
"g. c #EF8D8D",
"h. c #F0ACAC",
"j. c #E3B5B5",
"k. c #E4B6B6",
"l. c #E5BFBF",
"z. c #EBC6C6",
"x. c #E7CBCB",
"c. c #E4D2D2",
"v. c #EAD7D7",
"b. c #E5D8D8",
"n. c #ECDBDB",
"m. c #F3D1D1",
"M. c #F3D4D4",
"N. c #F3DCDC",
"B. c #F5DCDC",
"V. c #EBE0E0",
"C. c #EFEFEF",
"Z. c #F2E0E0",
"A. c #F5E2E2",
"S. c #F3E9E9",
"D. c #F4E8E8",
"F. c #F5E9E9",
"G. c #F3EDED",
"H. c #EFF3F3",
"J. c None",
/* pixels */
"J.J.J.J.J.` -.' _ ) ( 7 J.J.J.J.",
"J.J.J.J.2.>.$.@.X.} | *.J.J.J.J.",
"J.J.J.3.,.#.%.+. .E L T ] J.J.J.",
"J.J.2.:.o.5.O.#...I ~ A F / J.J.",
"J.1.&.Q 7.j.y.! Y 0.k.r.M S v J.",
"J.<.E W 6.l.b.p.e.x.c.q.m z b J.",
"J.;.P R U 9.z.V.n.v.t.V z l c J.",
"J.=.H L L K g.C.H.h.n d s t g J.",
"J.{ C D J p.N.D.A.S.d.i % @ , J.",
"J.[ N Z i.Z.F.u.8.B.G.f.e + > J.",
"J.^ G k w.m.a.r 0 4.M.s.: # 4 J.",
"J.J.j f p B u 8 & - x 5 $ 4 J.J.",
"J.J.J.h a 9 8 & % @ O * 3 J.J.J.",
"J.J.J.J.6 y w q - = ; 2 J.J.J.J.",
"J.J.J.J.J.1 < o X   . J.J.J.J.J.",
"J.J.J.J.J.J.J.J.J.J.J.J.J.J.J.J."
};
