/* XPM */
static char *quake_3_xpm[] = {
/* columns rows colors chars-per-pixel */
"16 16 95 2",
"   c #AB2D2D",
".  c #AA3030",
"X  c #AE3939",
"o  c #B13E3E",
"O  c #974D4D",
"+  c #975F5F",
"@  c #9F5C5C",
"#  c #AD4646",
"$  c #AD4647",
"%  c #AD4F4F",
"&  c #BE4F50",
"*  c #A05757",
"=  c #AD5152",
"-  c #A95959",
";  c #B55051",
":  c #B05A5B",
">  c #B75E5E",
",  c #BB5C5C",
"<  c #9B6161",
"1  c #9E6161",
"2  c #9C7F7F",
"3  c #A46161",
"4  c #A46363",
"5  c #A86363",
"6  c #AD6262",
"7  c #AF6364",
"8  c #A66D6D",
"9  c #B56262",
"0  c #B66363",
"q  c #B06666",
"w  c #B86565",
"e  c #B96667",
"r  c #BF6465",
"t  c #B56969",
"y  c #B96869",
"u  c #BD6F70",
"i  c #A47070",
"p  c #A87B7B",
"a  c #B77171",
"s  c #B37474",
"d  c #B77475",
"f  c #B87576",
"g  c #BB7677",
"h  c #BD7778",
"j  c #B57C7D",
"k  c #BA7879",
"l  c #BC7878",
"z  c #BE7B7C",
"x  c #C15354",
"c  c #938080",
"v  c #9C8484",
"b  c #998888",
"n  c #9F8A8A",
"m  c #9A9191",
"M  c #9D9292",
"N  c #A88E8E",
"B  c #B28080",
"V  c #B98181",
"C  c #B88484",
"Z  c #BD9090",
"A  c #BE9494",
"S  c #BC9696",
"D  c #BA9798",
"F  c #BF9999",
"G  c #BF9FA0",
"H  c #AEA1A1",
"J  c #AFAEAE",
"K  c #B2A6A6",
"L  c #B5ACAC",
"P  c gray71",
"I  c #BFB7B7",
"U  c #BDBCBC",
"Y  c #BFBCBC",
"T  c gray",
"R  c #C19595",
"E  c #C19999",
"W  c #C8ADAD",
"Q  c #C2B3B3",
"!  c #C8B0B0",
"~  c #C9B2B2",
"^  c #C6B9B9",
"/  c #CAB8B8",
"(  c #CDB9B9",
")  c #C8BEBE",
"_  c #CDBCBC",
"`  c #C6C3C3",
"'  c #CBC0C0",
"]  c #CDC0C1",
"[  c #D0C7C7",
"{  c #D2C8C8",
"}  c #D5CFCF",
"|  c #D1D0D0",
" . c #E2DFDF",
".. c #E2E2E2",
"X. c None",
/* pixels */
"X.X.X.X.X.X.X.X.X.X.X.X.X.X.X.X.",
"X.X.X.X.X.X.X.X.X.X.X.X.X.X.X.X.",
"X.X.X.X.X.X.X.K H X.X.X.X.X.X.X.",
"X.X.X.X.X.X.X.p i X.X.X.X.X.X.X.",
"X.X.X.^ M J ..s 7  .P m Q X.X.X.",
"X.X.S < v X.X.f 9 X.X.n + D X.X.",
"X.Z % B X.X.X.g w X.X.X.B = F X.",
"_ , u [ X.X.X.h e X.X.X.X.> r ] ",
"! & z | X.X.X.l y X.X.X.X.0 x / ",
"X.a ; j G ~ ) d t ' W A q o k } ",
"X.X.C : $ X * 3 5 4   . # V { X.",
"X.X.X._ E 6 O 1 8 @ - R ( X.X.X.",
"X.X.X.X.X.I c 2 N b L X.X.X.X.X.",
"X.X.X.X.X.X.U Y ` T X.X.X.X.X.X.",
"X.X.X.X.X.X.X.X.X.X.X.X.X.X.X.X.",
"X.X.X.X.X.X.X.X.X.X.X.X.X.X.X.X."
};
