/* XPM */
static char *seekbackward_xpm[] = {
/* columns rows colors chars-per-pixel */
"16 16 37 1",
"  c #858583",
". c #8D8E8B",
"X c #929390",
"o c #989896",
"O c #A4A4A3",
"+ c #A4A5A3",
"@ c #B4B5B3",
"# c #B6B7B5",
"$ c #B7B7B6",
"% c #C1C2BF",
"& c #C1C3BF",
"* c #C6C7C5",
"= c #C7C8C6",
"- c #C8C9C6",
"; c #C8C9C7",
": c #C9CAC8",
"> c #CECFCD",
", c #D2D3D0",
"< c #D3D4D2",
"1 c #D7D8D5",
"2 c #D7D8D6",
"3 c #D9DAD7",
"4 c #DBDCDA",
"5 c #E5E6E4",
"6 c #E8EAE7",
"7 c #EBECE9",
"8 c #EBEDEA",
"9 c #EFF1EE",
"0 c #F0F1EF",
"q c #F0F2EF",
"w c #F1F2EF",
"e c #F3F4F2",
"r c #F3F5F2",
"t c #F6F7F5",
"y c #F7F8F6",
"u c #F8F9F7",
"i c None",
/* pixels */
"iiiiiiiiiiiiiiii",
"iiiiiiiiiiiiiiii",
"iiiiiiiiiiiiiiii",
"iiiiiiiiiiiiiiii",
"iiiiiiiiiiiiiiii",
"iiiiii$@iiii#@ii",
"iiii+2w;iiO2q=ii",
"ii.;8er* -609:ii",
"iio,8ey>X,7et<ii",
"iiii%5u4ii&5u4ii",
"iiiiii31iiii31ii",
"iiiiiiiiiiiiiiii",
"iiiiiiiiiiiiiiii",
"iiiiiiiiiiiiiiii",
"iiiiiiiiiiiiiiii",
"iiiiiiiiiiiiiiii"
};
