/* XPM */
static char *colorpicker_xpm[] = {
/* columns rows colors chars-per-pixel */
"16 16 55 1",
"  c #212629",
". c #2C3132",
"X c #2C3234",
"o c #2E353A",
"O c #2D363D",
"+ c #333A3B",
"@ c #0E264B",
"# c #102545",
"$ c #2F3942",
"% c #2F3D4D",
"& c #323C41",
"* c #2F4256",
"= c #2D445D",
"- c #2D4761",
"; c #294D7F",
": c #304D72",
"> c #30537C",
", c #454646",
"< c #444C4F",
"1 c #444D50",
"2 c #5E6175",
"3 c #998578",
"4 c #3B659F",
"5 c #3264A4",
"6 c #2968B3",
"7 c #2769B8",
"8 c #5F7B9E",
"9 c #5C7E9C",
"0 c #637997",
"q c #607B9C",
"w c #4873A6",
"e c #4D75A7",
"r c #2D6FC3",
"t c #5787C0",
"y c #6291C8",
"u c #739FCC",
"i c #76A1CB",
"p c #958A87",
"a c #98968F",
"s c #978E97",
"d c #91929A",
"f c #B0A095",
"g c #8597AB",
"h c #B0ADA2",
"j c #A7ACB2",
"k c #9DB7D3",
"l c #A1BAD8",
"z c #91B6E2",
"x c #BDC5CF",
"c c #95C6F7",
"v c #C3C1C5",
"b c #E7EDF0",
"n c #EDF7FF",
"m c gray100",
"M c None",
/* pixels */
"MMMMMMMMMMM%* MM",
"MMMMMMMMMMO5>&MM",
"MMMMMMMM<=-:o+MM",
"MMMMMMMMa0$.XMMM",
"MMMMMMMMmb,XMMMM",
"MMMMMMfmnvM1MMMM",
"MMMMMplzjMMMMMMM",
"MMMM3i79MMMMMMMM",
"MMMsu6qMMMMMMMMM",
"MMMgr8MMMMMMMMMM",
"MMhxdMMMMMMMMMMM",
"MM42MMMMMMMMMMMM",
"MMy@MMMMMMMMMMMM",
"Mkcw#MMMMMMMMMMM",
"Met;MMMMMMMMMMMM",
"MMMMMMMMMMMMMMMM"
};
