/* XPM */
static char * layers_delete_xpm[] = {
"16 16 140 2",
"  	c None",
". 	c #2E3436",
"+ 	c #64696A",
"@ 	c #909894",
"# 	c #E9EAE3",
"$ 	c #EEEFEC",
"% 	c #EFF0EE",
"& 	c #D2D5D3",
"* 	c #BFC1C1",
"= 	c #979A9B",
"- 	c #424749",
"; 	c #D9DBD6",
"> 	c #C7CAC4",
", 	c #6E7672",
"' 	c #424745",
") 	c #242727",
"! 	c #313432",
"~ 	c #7A837E",
"{ 	c #B3B8B3",
"] 	c #CBCECB",
"^ 	c #CBCFCB",
"/ 	c #D6D9D3",
"( 	c #D2D5CD",
"_ 	c #DADCD6",
": 	c #AEB3AD",
"< 	c #5C6362",
"[ 	c #353939",
"} 	c #373A38",
"| 	c #585E5B",
"1 	c #8D948F",
"2 	c #AAAFA7",
"3 	c #D2D6D2",
"4 	c #B5BAB5",
"5 	c #E5E5E1",
"6 	c #F0F0ED",
"7 	c #ECEDE9",
"8 	c #E3E5E0",
"9 	c #DDDED9",
"0 	c #CBCEC7",
"a 	c #B6BBB3",
"b 	c #A2A8A0",
"c 	c #B3B8B0",
"d 	c #BABFB7",
"e 	c #ABB0A8",
"f 	c #CBCECD",
"g 	c #E0E2E2",
"h 	c #E6E6DD",
"i 	c #F4F4EF",
"j 	c #F4F3F1",
"k 	c #F4F4F1",
"l 	c #F3F4F0",
"m 	c #F0F0EB",
"n 	c #E5E6E0",
"o 	c #D6D9D2",
"p 	c #919894",
"q 	c #8B8F8D",
"r 	c #898D8D",
"s 	c #5D6162",
"t 	c #9A9C9C",
"u 	c #C2C5C4",
"v 	c #BCC0BF",
"w 	c #D9DBD2",
"x 	c #DFE0D8",
"y 	c #D9DBD4",
"z 	c #CCD0CF",
"A 	c #848C89",
"B 	c #969C99",
"C 	c #86898A",
"D 	c #53585A",
"E 	c #8E9091",
"F 	c #5A5F60",
"G 	c #8B8F8F",
"H 	c #ADAFB0",
"I 	c #E4E5E5",
"J 	c #E3E5E5",
"K 	c #E3E5E4",
"L 	c #A1A4A4",
"M 	c #686D6E",
"N 	c #3C4041",
"O 	c #4C5052",
"P 	c #6B7171",
"Q 	c #323838",
"R 	c #2E3434",
"S 	c #2B3132",
"T 	c #2B3133",
"U 	c #292E30",
"V 	c #282D2F",
"W 	c #272C2E",
"X 	c #393D3C",
"Y 	c #939594",
"Z 	c #AFB5B3",
"` 	c #B0B6B4",
" .	c #69706E",
"..	c #979F9B",
"+.	c #6A716D",
"@.	c #393E3B",
"#.	c #5F6764",
"$.	c #333734",
"%.	c #616866",
"&.	c #989B99",
"*.	c #B7BBBB",
"=.	c #D5D8D6",
"-.	c #818A88",
";.	c #D1D4D2",
">.	c #7E8785",
",.	c #515756",
"'.	c #899290",
").	c #434844",
"!.	c #6E7774",
"~.	c #A0A3A1",
"{.	c #D6D9D7",
"].	c #858D8A",
"^.	c #D8DBD8",
"/.	c #A2A8A3",
"(.	c #555B59",
"_.	c #979E9C",
":.	c #454B47",
"<.	c #6F7875",
"[.	c #D4D7D5",
"}.	c #838C89",
"|.	c #D8DBD7",
"1.	c #9B9D9B",
"2.	c #AFB1B0",
"3.	c #CCCFCF",
"4.	c #B9BBBB",
"5.	c #DDDFDC",
"6.	c #A0A7A4",
"7.	c #878B88",
"8.	c #929595",
"9.	c #727373",
"0.	c #575C5E",
"a.	c #9B9C9B",
"b.	c #D5D8D7",
"c.	c #CFD2D0",
"d.	c #BFC0BF",
"e.	c #BEC1BF",
"f.	c #878787",
"g.	c #54595A",
"h.	c #636667",
"i.	c #414648",
"          . . . . . .           ",
"      . + @ # $ % & * = .       ",
"    - ; > , ' ) ! ~ { ] ^ .     ",
"  . / ( _ : < [ } | 1 2 3 4 .   ",
"  . 5 6 7 8 9 0 a b c d e f .   ",
"  . g h i j k l m n o p q r .   ",
"  s t u v w x y z A B C D . E   ",
"    . F G H I J K L M N O .     ",
"    . P Q R S T U V W X Y .     ",
"    . Z `  ...+.@.#.$.%.&..     ",
"    . *.=.-.;.>.,.'.).!.~..     ",
"    . *.{.].^./.(._.:.<.~..     ",
"    . *.[.}.|./.(._.:.!.1..     ",
"    . 2.3.4.5./.(.6.7.8.9..     ",
"      . 0.a.b.c.d.e.f.g..       ",
"          h.i.. . i.h.          "};
