/* XPM */
static char *stop_xpm[] = {
/* columns rows colors chars-per-pixel */
"16 16 43 1",
"  c #9FA09E",
". c #A7A8A6",
"X c #A8A9A7",
"o c #A8AAA7",
"O c #A9AAA7",
"+ c #A9AAA8",
"@ c #AAABA8",
"# c #ABADA9",
"$ c #B2B4B0",
"% c #BCBDB9",
"& c #C3C4C0",
"* c #C8CAC6",
"= c #C9CBC7",
"- c #CBCDC8",
"; c #CCCDC9",
": c #CCCECA",
"> c #CDCFCB",
", c #D6D8D5",
"< c #D7D8D5",
"1 c #DADBD8",
"2 c #DCDDDA",
"3 c #DCDFDA",
"4 c #DEE0DB",
"5 c #DFE1DD",
"6 c #E1E3DE",
"7 c #E1E3DF",
"8 c #E2E3DF",
"9 c #E2E4DF",
"0 c #E1E2E0",
"q c #E2E3E0",
"w c #E2E4E0",
"e c #E3E4E1",
"r c #E3E5E1",
"t c #E4E5E3",
"y c #E4E6E2",
"u c #E6E7E4",
"i c #E6E8E4",
"p c #E7E9E6",
"a c #E8E9E6",
"s c #EAEBE9",
"d c #EBECE9",
"f c #EDEEEC",
"g c None",
/* pixels */
"gggggggggggggggg",
"gggggggggggggggg",
"gggggggggggggggg",
"gggggggggggggggg",
"ggggg +ooO.ggggg",
"ggggg,ewwqqXgggg",
"ggggg<rww87@gggg",
"ggggg1puy95#gggg",
"ggggg2ir643$gggg",
"ggggg0daiyw%gggg",
"gggggtfsaur&gggg",
"ggggg*>:;-=ggggg",
"gggggggggggggggg",
"gggggggggggggggg",
"gggggggggggggggg",
"gggggggggggggggg"
};
