/* XPM */
static char * layers_new_xpm[] = {
"16 16 112 2",
"  	c None",
". 	c #C6C3C2",
"+ 	c #ABAAA9",
"@ 	c #ADACAB",
"# 	c #ACABAA",
"$ 	c #9F9E9D",
"% 	c #B5B3B2",
"& 	c #A2A19F",
"* 	c #FFFFFF",
"= 	c #F4F4F4",
"- 	c #BBBBBB",
"; 	c #B6B4B2",
"> 	c #A09F9D",
", 	c #FCFCFC",
"' 	c #FAFAFA",
") 	c #F9F9F9",
"! 	c #E1E1E0",
"~ 	c #DADADB",
"{ 	c #DADADA",
"] 	c #A19F9E",
"^ 	c #CBCBCC",
"/ 	c #F8F8F8",
"( 	c #E1E1E1",
"_ 	c #B8B7B8",
": 	c #CFD0CF",
"< 	c #B4B2B1",
"[ 	c #F6F6F6",
"} 	c #F6F7F6",
"| 	c #F5F5F5",
"1 	c #EAEBEB",
"2 	c #B3B3B2",
"3 	c #818181",
"4 	c #999A99",
"5 	c #9B9A9A",
"6 	c #AEADAB",
"7 	c #A09E9D",
"8 	c #D1D1D0",
"9 	c #A4A4A4",
"0 	c #979796",
"a 	c #B7B7B7",
"b 	c #91908E",
"c 	c #EFEFEF",
"d 	c #F0EFEF",
"e 	c #EFEFEE",
"f 	c #EEEDED",
"g 	c #EBEBEB",
"h 	c #E3E3E2",
"i 	c #D3D3D3",
"j 	c #C8C8C8",
"k 	c #E2E2E2",
"l 	c #989695",
"m 	c #A09E9C",
"n 	c #E6D3C7",
"o 	c #E99E74",
"p 	c #F37B37",
"q 	c #F05B05",
"r 	c #F27A35",
"s 	c #F3A67B",
"t 	c #9C9996",
"u 	c #FEFEFE",
"v 	c #E9E8E8",
"w 	c #E8E8E8",
"x 	c #E8E8E7",
"y 	c #E7E7E6",
"z 	c #E5E5E5",
"A 	c #E5D2C7",
"B 	c #EC894F",
"C 	c #F25D00",
"D 	c #F36200",
"E 	c #F36500",
"F 	c #F36504",
"G 	c #F08B50",
"H 	c #9C9A97",
"I 	c #FBFBFA",
"J 	c #DE946A",
"K 	c #F79957",
"L 	c #F36600",
"M 	c #F9BC90",
"N 	c #EFA276",
"O 	c #9C9997",
"P 	c #F8F8F7",
"Q 	c #E1E0E0",
"R 	c #E0E0E0",
"S 	c #DFDFDE",
"T 	c #DEDEDE",
"U 	c #ED7631",
"V 	c #F79B59",
"W 	c #FCD9C0",
"X 	c #F17833",
"Y 	c #9B9997",
"Z 	c #F4F4F3",
"` 	c #C6C6C5",
" .	c #F15B05",
"..	c #F25C06",
"+.	c #999795",
"@.	c #F6F5F4",
"#.	c #E9E9E8",
"$.	c #F07833",
"%.	c #A19E9C",
"&.	c #7D7C7A",
"*.	c #80807F",
"=.	c #B86C42",
"-.	c #F0A377",
";.	c #E2DFDB",
">.	c #CCCAC6",
",.	c #C9C7C4",
"'.	c #CEB9AB",
").	c #E58045",
"!.	c #F28D52",
"~.	c #F2A67A",
"{.	c #F27935",
"].	c #F25D06",
". + @ @ # @ $ %                 ",
"& * * * * * = - ;               ",
"> * , , ' ) ! ~ { ;             ",
"] * ^ ^ ^ / ( _ = : <           ",
"> * [ } | | 1 2 3 4 5 6         ",
"7 * ^ ^ ^ ^ ^ 8 9 0 a b         ",
"7 * c d e f g h i j k l         ",
"m * ^ ^ ^ ^ ^ ^ n o p q r s     ",
"t u v w x y z A B C D E F C G   ",
"H I ^ ^ ^ ^ ^ J C K L M L K C N ",
"O P Q R Q S T U D L V W V L D X ",
"Y Z ` ` ` ` `  .E M W * W M E ..",
"+.@.#.#.#.v w $.D L V W V L D X ",
"%.&.*.*.*.*.*.=.C K L M L K C -.",
";.>.,.,.,.,.,.'.).C D E D C !.  ",
"                  ~.{.].{.~.    "};
