/* XPM */
static char *skipforward_xpm[] = {
/* columns rows colors chars-per-pixel */
"16 16 54 1",
"  c #868785",
". c #8C8D8B",
"X c #8D8D8B",
"o c #9C9C9A",
"O c #9D9E9B",
"+ c #A1A29F",
"@ c #A5A6A3",
"# c #A7A8A6",
"$ c #A8A9A7",
"% c #A9AAA8",
"& c #ACADAA",
"* c #AFB0AD",
"= c #B0B1AF",
"- c #B7B7B6",
"; c #B7B8B6",
": c #BABBB9",
"> c #BEBFBB",
", c #BEC0BC",
"< c #C2C3C1",
"1 c #C4C5C1",
"2 c #C4C6C1",
"3 c #C4C4C2",
"4 c #C4C5C2",
"5 c #C5C6C4",
"6 c #C6C7C5",
"7 c #C6C8C4",
"8 c #C7C8C5",
"9 c #C7C8C6",
"0 c #C9CAC8",
"q c #CECFCC",
"w c #CECFCD",
"e c #D6D6D5",
"r c #D6D7D5",
"t c #D7D8D5",
"y c #D9DAD8",
"u c #DDDEDB",
"i c #DDDEDC",
"p c #DDDFDC",
"a c #DEDFDC",
"s c #E2E3E1",
"d c #E3E4E2",
"f c #ECEDEA",
"g c #EDEEEC",
"h c #EEEFED",
"j c #EEF0ED",
"k c #EFF0ED",
"l c #EFF0EE",
"z c #F0F1EF",
"x c #F1F2F0",
"c c #F2F3F1",
"v c #F4F5F3",
"b c #F5F6F4",
"n c #F7F7F6",
"m c None",
/* pixels */
"mmmmmmmmmmmmmmmm",
"mmmmmmmmmmmmmmmm",
"mmmmmmmmmmmmmmmm",
"mmmmmmmmmmmmmmmm",
"mmmmmmmmmmmmm  m",
"mo3.mmmo3Xmmm<<m",
"m$jd;mm%hs-mm66m",
"m=xvcy+@gkfrO<9m",
"m:vbzp&*vvla#0wm",
"m4ngqmm5ngwmmrem",
"m7u>mmm8i,mmmttm",
"mmmmmmmmmmmmm21m",
"mmmmmmmmmmmmmmmm",
"mmmmmmmmmmmmmmmm",
"mmmmmmmmmmmmmmmm",
"mmmmmmmmmmmmmmmm"
};
