/* XPM */
static char *eraser[] = {
/* columns rows colors chars-per-pixel */
"16 16 91 1",
"  c #54473F",
". c #4D4E4E",
"X c #5A5855",
"o c #63564B",
"O c #64564B",
"+ c #675B50",
"@ c #635C52",
"# c #645D53",
"$ c #645D54",
"% c #64625F",
"& c #6D635A",
"* c #6A6459",
"= c #72695E",
"- c #676564",
"; c #686561",
": c #6A6865",
"> c #766C61",
", c #766D63",
"< c #766F63",
"1 c #787165",
"2 c #7B7364",
"3 c #7B7267",
"4 c #7C7267",
"5 c #81786C",
"6 c #867E70",
"7 c #898072",
"8 c #8B8477",
"9 c #94897A",
"0 c #958A7A",
"q c #978C7E",
"w c #999081",
"e c #9D9384",
"r c #A09384",
"t c #A09684",
"y c #A09687",
"u c #A49B8B",
"i c #A49B8C",
"p c #A69E8D",
"a c #A89E8F",
"s c #A89E90",
"d c #A89F90",
"f c #A89F91",
"g c #AA9F90",
"h c #A7A090",
"j c #A9A190",
"k c #AAA091",
"l c #A9A092",
"z c #ABA292",
"x c #AEA495",
"c c #C2B5A8",
"v c #CABDAF",
"b c #CBBFB0",
"n c #CDC0AF",
"m c #CFC6B7",
"M c #D0C7B8",
"N c #D3CBBC",
"B c #DCCDBE",
"V c #DBD1BF",
"C c #DBD2C0",
"Z c #DFD3C3",
"A c #EEE8D5",
"S c #F0E8D5",
"D c #F6F3DF",
"F c #F5F4DF",
"G c #F5F5DF",
"H c #F6F5E1",
"J c #F9F8E3",
"K c #FBFAE3",
"L c #FAF9E4",
"P c #F8FAE4",
"I c #FCFBE7",
"U c #FFFBE7",
"Y c #FDFCE7",
"T c #FFFDE8",
"R c #FDFEE9",
"E c #FFFFEA",
"W c #FFFFEB",
"Q c #FFFFEC",
"! c #FFFFED",
"~ c #FFFFEE",
"^ c #FFFFF2",
"/ c #FFFFF3",
"( c #FFFFF5",
") c #FFFFF6",
"_ c #FFFFF8",
"` c #FFFFF9",
"' c #FFFFFB",
"] c #FFFFFC",
"[ c #FFFFFD",
"{ c gray100",
"} c None",
/* pixels */
"}}}}}}}}}}}}}}}}",
"}}}}}}}}}}}}}}}}",
"}}}}}}}}32oO+7 }",
"}}}}}}}5NEEE'~w}",
"}}}}}}4mIE^!J6e}",
"}}}}}=MDRELA*cy}",
"}}}}>VGRQLA$b/e}",
"}}}>CKW~YS@n{8.}",
"}}&Z)(HPT#v`,X}}",
"}qufh09xrB_<%}}}",
"}j[JFFJ`kU1:}}}}",
"}a[JFFJ]i=-}}}}}",
"}spldgzjt;}}}}}}",
"}}}}}}}}}}}}}}}}",
"}}}}}}}}}}}}}}}}",
"}}}}}}}}}}}}}}}}"
};
