/* XPM */
static char *play_xpm[] = {
/* columns rows colors chars-per-pixel */
"16 16 41 1",
"  c #70716F",
". c #8A8B89",
"X c #90918F",
"o c #969794",
"O c #A5A6A3",
"+ c #A9AAA8",
"@ c #B0B1AE",
"# c #B6B6B4",
"$ c #B6B7B4",
"% c #BCBDBB",
"& c #C3C4C2",
"* c #C4C5C3",
"= c #C6C7C5",
"- c #C7C8C6",
"; c #C9CAC8",
": c #C9CBC8",
"> c #CDCECC",
", c #CECFCC",
"< c #CFD0CE",
"1 c #D0D1CE",
"2 c #D9DAD7",
"3 c #DFE1DD",
"4 c #E0E1DF",
"5 c #E7E8E6",
"6 c #E9EAE7",
"7 c #E9EBE8",
"8 c #ECEEEA",
"9 c #ECEEEB",
"0 c #EDEFEB",
"q c #EFF0ED",
"w c #EFF1EE",
"e c #F0F1EE",
"r c #F0F1EF",
"t c #F0F2EF",
"y c #F1F2EF",
"u c #F1F2F0",
"i c #F1F3F0",
"p c #F3F4F2",
"a c #F7F8F6",
"s c #F8F8F7",
"d c None",
/* pixels */
"dddddddddddddddd",
"dddddddddddddddd",
"dddddddddddddddd",
"dddd ddddddddddd",
"dddd%=.ddddddddd",
"dddd&03$dddddddd",
"dddd*0892+dddddd",
"dddd-iewq7>Xdddd",
"dddd;rtuy6,odddd",
"dddd>pas4#dddddd",
"dddd<r5-dddddddd",
"dddd:1@ddddddddd",
"ddddOddddddddddd",
"dddddddddddddddd",
"dddddddddddddddd",
"dddddddddddddddd"
};
