/* XPM */
static char *rectselection_xpm[] = {
/* columns rows colors chars-per-pixel */
"16 16 43 1",
"  c #272727",
". c gray18",
"X c gray20",
"o c gray23",
"O c #464646",
"+ c #565656",
"@ c #6C6C6C",
"# c gray46",
"$ c #777777",
"% c #71747B",
"& c gray49",
"* c #988B61",
"= c gray51",
"- c #888B8F",
"; c #888B93",
": c #8E939D",
"> c #9296A0",
", c #8996B2",
"< c gray65",
"1 c #CBC8B4",
"2 c #94A4C6",
"3 c #97A7CA",
"4 c #9BACD0",
"5 c #9EAFD3",
"6 c #A9BBE2",
"7 c #BDD0F6",
"8 c #BDD2FD",
"9 c #BFD4FF",
"0 c #D4D4C7",
"q c #FEF5C2",
"w c #C5D7FA",
"e c #CCDCF8",
"r c #D9E5FF",
"t c #DBE7FF",
"y c gray95",
"u c #F3F3F3",
"i c gray97",
"p c #F7F8F8",
"a c #FBFBFB",
"s c #FDFEFE",
"d c #FEFEFE",
"f c gray100",
"g c None",
/* pixels */
"gggggggggggggggg",
"gggggggggggggggg",
"gggggggggggg<ggg",
"ggggggggggg=#ggg",
"gggggggggg&+gggg",
"gggggggggg@Xgggg",
"gggggggggOoggggg",
"g;:pf>>u .%diggg",
"g:99999r$,89:ggg",
"gf9999wft999:ggg",
"gs999eq09999aggg",
"g:9971*34256yggg",
"gf9999999999:ggg",
"gd9999999999:ggg",
"g-:dd::fd::dfggg",
"gggggggggggggggg"
};
