/* XPM */
static char *skipbackward_xpm[] = {
/* columns rows colors chars-per-pixel */
"16 16 56 1",
"  c #868785",
". c #8C8D8B",
"X c #979896",
"o c #9A9B99",
"O c #9C9C9A",
"+ c #9C9D9B",
"@ c #9FA09E",
"# c #A3A4A1",
"$ c #A6A7A4",
"% c #A7A8A6",
"& c #A8A9A7",
"* c #A9AAA7",
"= c #AAABA9",
"- c #B5B6B4",
"; c #B6B7B5",
": c #B7B7B6",
"> c #BBBCB8",
", c #BBBCB9",
"< c #C0C1BD",
"1 c #C1C2BF",
"2 c #C2C3C0",
"3 c #C2C3C1",
"4 c #C3C4C2",
"5 c #C4C4C2",
"6 c #C4C5C2",
"7 c #C4C5C3",
"8 c #C5C6C3",
"9 c #C6C7C5",
"0 c #C7C8C6",
"q c #C9CAC8",
"w c #CACBC9",
"e c #CBCCC9",
"r c #CFD0CE",
"t c #D4D5D2",
"y c #D5D6D4",
"u c #D5D7D4",
"i c #D7D8D5",
"p c #DBDDDA",
"a c #DCDDDA",
"s c #DCDDDB",
"d c #E2E3E1",
"f c #E2E4E1",
"g c #EBECE9",
"h c #ECEDEB",
"j c #ECEEEB",
"k c #EEEFEC",
"l c #EEEFED",
"z c #EEF0ED",
"x c #EFF0ED",
"c c #EFF0EE",
"v c #F1F2EF",
"b c #F3F4F2",
"n c #F4F4F3",
"m c #F4F5F3",
"M c #F6F7F6",
"N c None",
/* pixels */
"NNNNNNNNNNNNNNNN",
"NNNNNNNNNNNNNNNN",
"NNNNNNNNNNNNNNNN",
"NNNNNNNNNNNNNNNN",
"N  NNNNNNNNNNNNN",
"N33NNN.5+NNN.4ON",
"N90NN:fl&NN;dl%N",
"Nw7Xicvk@otjzg=N",
"Nrq#sxmn*$pxmb-N",
"NyyNNehM2NNehM1N",
"NyuNNN,a8NNN>a6N",
"N<<NNNNNNNNNNNNN",
"NNNNNNNNNNNNNNNN",
"NNNNNNNNNNNNNNNN",
"NNNNNNNNNNNNNNNN",
"NNNNNNNNNNNNNNNN"
};
